# xmcd CD database file generated by Grip 3.3.1
# 
# Track frame offsets:
#       165
#       10465
#       26839
#       43077
#       55373
#       71711
#       88209
#       102601
#       115863
#       132860
# 
# Disc length: 1950 seconds
# 
# Revision: 1
# Processed by: cddbd v1.5.2PL0 Copyright (c) Steve Scherf et al.
# Submitted via: Grip 3.3.1
# 
DISCID=93079c0a
DTITLE=Almir Sater - No Pantanal
DYEAR=1990
DGENRE=Country
TTITLE0=Chalana
TTITLE1=Boiero do Nabileque
TTITLE2=Missões Naturais
TTITLE3=Capim de Ribanceira
TTITLE4=Estradeiro
TTITLE5=Um Violeiro Toca
TTITLE6=Rasta Bonito
TTITLE7=Semente
TTITLE8=Boiada
TTITLE9=Flor do Amor
EXTD=Brazilian Country music (Sertanejo)
EXTT0=
EXTT1=
EXTT2=
EXTT3=
EXTT4=
EXTT5=
EXTT6=
EXTT7=
EXTT8=
EXTT9=
PLAYORDER=
